<?xml version="1.0" encoding="UTF-8" standalone="no"?>
<svg
   xmlns:dc="http://purl.org/dc/elements/1.1/"
   xmlns:cc="http://creativecommons.org/ns#"
   xmlns:rdf="http://www.w3.org/1999/02/22-rdf-syntax-ns#"
   xmlns:svg="http://www.w3.org/2000/svg"
   xmlns="http://www.w3.org/2000/svg"
   viewBox="0 0 424 366.66666"
   height="366.66666"
   width="424"
   xml:space="preserve"
   id="svg2"
   version="1.1"><metadata
     id="metadata8"><rdf:RDF><cc:Work
         rdf:about=""><dc:format>image/svg+xml</dc:format><dc:type
           rdf:resource="http://purl.org/dc/dcmitype/StillImage" /></cc:Work></rdf:RDF></metadata><defs
     id="defs6" /><g
     transform="matrix(1.3333333,0,0,-1.3333333,0,366.66667)"
     id="g10"><g
       transform="scale(0.1)"
       id="g12"><path
         id="path14"
         style="fill:#00adef;fill-opacity:1;fill-rule:nonzero;stroke:none"
         d="m 2835.59,2743.79 c 48.47,0 87.77,-39.29 87.77,-87.77 0,-48.47 -39.3,-87.77 -87.77,-87.77 -48.48,0 -87.77,39.3 -87.77,87.77 0,48.48 39.29,87.77 87.77,87.77" /><path
         id="path16"
         style="fill:#00adef;fill-opacity:1;fill-rule:nonzero;stroke:none"
         d="m 3049.27,2469.16 c 22.54,-27.66 31.1,-59.23 31.15,-59.41 58.94,-179.61 90.7,-371.48 90.7,-570.79 C 3171.12,828.773 2352.22,9.875 1342.03,9.875 820.035,9.875 349.117,228.527 15.8711,579.23 c -0.2227,0.235 -2.1875,3.004 -4.2305,7.239 -1.98044,4.101 -4.25779,9.926 -5.37888,16.754 -2.28125,13.882 0.3125,31.699 18.96488,46.992 21.0586,17.269 40.75,17.445 55.2109,12.973 7.1133,-2.2 12.8594,-5.485 16.8164,-8.208 4.0981,-2.816 6.4221,-5.144 6.4221,-5.144 C 409.633,321.77 846.164,116.52 1330.67,116.52 c 925.52,0 1675.77,748.742 1675.77,1672.37 0,231.79 -39.27,424.61 -124.64,625.24 -7.44,23.23 -14.44,71.74 51.04,90.69 56.45,16.34 93.69,-7.75 116.43,-35.66" /><path
         id="path18"
         style="fill:#231f20;fill-opacity:1;fill-rule:nonzero;stroke:none"
         d="m 537.57,1277.88 v 452.87 h -55.929 v -446.28 c 0,-111.11 -77.672,-184.54 -196.782,-184.54 -119.093,0 -196.7652,73.43 -196.7652,184.54 v 446.28 H 32.168 v -452.87 c 0,-130.88 104.602,-223.15 252.691,-223.15 148.11,0 252.711,92.27 252.711,223.15" /><path
         id="path20"
         style="fill:#231f20;fill-opacity:1;fill-rule:nonzero;stroke:none"
         d="m 1187.43,1060.38 h 55.92 v 670.37 h -55.92 v -580.92 l -425.664,580.92 h -55.93 v -670.37 h 55.93 v 582.81 l 425.664,-582.81" /><path
         id="path22"
         style="fill:#231f20;fill-opacity:1;fill-rule:nonzero;stroke:none"
         d="m 1898.66,1062.28 h 55.92 v 670.37 h -55.92 V 1151.72 L 1473,1732.65 h -55.93 V 1062.28 H 1473 v 582.8 l 425.66,-582.8" /><path
         id="path24"
         style="fill:#231f20;fill-opacity:1;fill-rule:evenodd;stroke:none"
         d="m 2659.55,1060.38 h 67.85 l -548.55,670.37 -51.59,0.01 v -670.34 h 58.01 v 162.81 l 343.98,0.04 z m -474.28,586.86 305.86,-378.79 -305.86,0.03 z" /><path
         id="path26"
         style="fill:#231f20;fill-opacity:1;fill-rule:evenodd;stroke:none"
         d="m 910.121,2101.71 h -148.25 v -277.75 h -96.457 v 645.66 H 939.73 c 134.63,0 218.3,-78.35 218.3,-185.81 0,-90.67 -60.33,-148.62 -139.49,-168.41 l -8.67,-2.17 165.66,-289.27 h -112.65 z m -148.25,71.64 v 220 h 169.703 c 75.776,0 129.996,-40.74 129.996,-110.46 0,-69.8 -54.31,-109.54 -129.996,-109.54 H 761.871" /><path
         id="path28"
         style="fill:#231f20;fill-opacity:1;fill-rule:nonzero;stroke:none"
         d="m 1282.46,2469.62 h 449.85 v -76.27 h -353.39 v -206.11 h 301.44 v -75.34 h -301.44 v -211.67 h 353.39 v -76.27 h -449.85 v 645.66" /><path
         id="path30"
         style="fill:#231f20;fill-opacity:1;fill-rule:nonzero;stroke:none"
         d="m 1878.43,2469.62 h 96.46 v -645.66 h -96.46 v 645.66" /><path
         id="path32"
         style="fill:#231f20;fill-opacity:1;fill-rule:nonzero;stroke:none"
         d="m 2085.79,1898.64 63.24,56.68 c 53.38,-46.4 112.02,-60.64 185.33,-60.64 95.76,0 156.47,37.84 156.47,107.68 0,30.13 -9.6,56.34 -30.94,73.71 -19.85,17.03 -39.69,23.68 -82.91,29.29 l -85.56,11.1 c -58.22,7.31 -103.69,25.47 -133.94,51.22 -33.91,29.05 -50.59,68.69 -50.59,120.76 0,109.84 87.26,186.74 235.62,186.74 91.35,0 155.68,-20.44 214.71,-68.43 l -60.05,-53.8 c -45.43,37.26 -97.71,48.72 -157.72,48.72 -87.97,0 -139.16,-46.27 -139.16,-109.53 0,-25.73 8.81,-49.11 30,-66.35 19.61,-15.86 50.49,-27.27 84.83,-32 l 82.48,-11.12 c 66.57,-9.17 102.91,-23.72 132.12,-47.63 37.76,-29.93 56.54,-75.02 56.54,-129.9 0,-115.66 -103.71,-186.73 -253.94,-186.73 -104.92,0 -180.23,21.61 -246.53,80.23" /><path
         id="path34"
         style="fill:#231f20;fill-opacity:1;fill-rule:nonzero;stroke:none"
         d="M 258.66,2153.81 128.672,2012 V 1824.48 H 32.2148 v 645.67 h 96.4572 v -342.4 l 306.156,342.4 H 550.902 L 322.461,2219.3 578.219,1824.48 H 465.07 l -206.41,329.33" /></g></g></svg>